<?xml version="1.0" encoding="UTF-8"?>
<svg id="Calque_1" data-name="Calque 1" xmlns="http://www.w3.org/2000/svg" viewBox="0 0 500 500">
  <defs>
    <style>
      .cls-1 {
        fill: #f4f4f4;
      }
    </style>
  </defs>
  <polygon class="cls-1" points="460.23 6.35 259.86 11.81 230.64 200.42 318.92 182.88 326.66 96.79 363.67 99.11 352.64 136.57 429.89 125.87 460.23 6.35"/>
  <polygon class="cls-1" points="479.95 299.86 356.26 404.31 377.1 493.65 107.39 493.65 128.24 446.28 74.83 356.69 74.83 273.91 225.78 275.86 241.56 317.44 361.63 300.2 350.06 267.7 262.98 284.42 240.38 227.16 438.56 194.05 479.95 299.86"/>
  <polygon class="cls-1" points="20.05 119.31 69.72 208.18 69.72 249.08 118.36 250.63 123.12 206.71 154.87 250.63 217.44 250.63 182.66 168.48 226.2 11.81 136.43 45.3 113.05 111.03 86.51 72.4 20.05 119.31"/>
</svg>